<?xml version="1.0" encoding="utf-8"?>
<!-- Generator: Adobe Illustrator 23.0.1, SVG Export Plug-In . SVG Version: 6.00 Build 0)  -->
<svg version="1.1" xmlns="http://www.w3.org/2000/svg" xmlns:xlink="http://www.w3.org/1999/xlink" x="0px" y="0px"
	 viewBox="0 0 500 500" style="enable-background:new 0 0 500 500;" xml:space="preserve">
<style type="text/css">
	.st0{fill:#FFCC00;}
	.st1{fill:none;stroke:#FFFFFF;stroke-width:5.8442;stroke-miterlimit:10;}
	.st2{fill:#FFFFFF;}
</style>
<g id="Background_Rectangle">
	<path class="st0" d="M444.1,500H55.9C25.2,500,0,474.8,0,444.1V55.9C0,25.2,25.2,0,55.9,0h388.1C474.8,0,500,25.2,500,55.9v388.1
		C500,474.8,474.8,500,444.1,500z"/>
</g>
<g id="Rectangle_Frame">
	<path class="st1" d="M399.1,455.1H100.9c-30.8,0-55.9-25.2-55.9-55.9V100.9c0-30.8,25.2-55.9,55.9-55.9h298.3
		c30.8,0,55.9,25.2,55.9,55.9v298.3C455.1,429.9,429.9,455.1,399.1,455.1z"/>
</g>
<g id="Chat_Bubble_1_">
	<g>
		<ellipse transform="matrix(0.7071 -0.7071 0.7071 0.7071 -103.5534 250)" class="st2" cx="250" cy="250" rx="13.1" ry="13.1"/>
		<path class="st2" d="M262.2,116.2v34.5h-23.4v-34.6c-69,5.7-123.2,63.5-123.2,133.9c0,26,7.4,50.3,20.2,70.9l-10.7,53.7l47.2-14.9
			c19.1,13.5,41.8,22.2,66.5,24.3v-28.7h23.4v28.6c68.5-6.2,122.2-63.7,122.2-133.8S330.7,122.3,262.2,116.2z M182.8,267.5
			c-9.7,0-17.5-7.8-17.5-17.5s7.8-17.5,17.5-17.5s17.5,7.8,17.5,17.5S192.5,267.5,182.8,267.5z M250,265.6c-8.6,0-15.6-7-15.6-15.6
			s7-15.6,15.6-15.6s15.6,7,15.6,15.6S258.6,265.6,250,265.6z M317.2,267.5c-9.7,0-17.5-7.8-17.5-17.5s7.8-17.5,17.5-17.5
			s17.5,7.8,17.5,17.5S326.9,267.5,317.2,267.5z"/>
	</g>
</g>
</svg>
