<?xml version="1.0" encoding="utf-8"?>
<!-- Generator: Adobe Illustrator 25.4.1, SVG Export Plug-In . SVG Version: 6.00 Build 0)  -->
<svg version="1.1" id="Layer_1" xmlns="http://www.w3.org/2000/svg" xmlns:xlink="http://www.w3.org/1999/xlink" x="0px" y="0px"
	 viewBox="0 0 502.4 473.5" style="enable-background:new 0 0 502.4 473.5;" xml:space="preserve">
<style type="text/css">
	.st0{fill:#33C648;}
</style>
<path class="st0" d="M194.1,171.6c0-11-0.1-22,0-33c0.1-8.7,5.2-13.8,13.6-13.7c8,0.1,13.3,5.3,13.3,13.7c0.1,22,0,44,0,66
	c0,6.6,0.5,7.1,7.2,7.1c15.3,0,30.7-0.1,46,0.1c4.8,0.1,6.5-1.8,6.5-6.5c-0.1-22.2-0.1-44.4,0-66.5c0-9.1,6.1-14.7,15.1-13.9
	c7.5,0.7,11.9,5.7,11.9,13.9c0.1,18,0,36,0,54c0,4.5,0,9,0,13.5c0,3.7,1.7,5.5,5.5,5.4c7.3-0.1,14.7-0.1,22,0c5.9,0,7.2,1.3,7.2,6.9
	c0,14.7-0.1,29.3,0.1,44c0,4.6-1.8,7-6.4,6.8c-4.9-0.2-6.3,2.5-6.3,6.9c0,10.5,0.5,21.1-0.3,31.5c-2.6,32-19.4,54.2-48.6,67.1
	c-7.2,3.2-8.7,4.4-7.5,12.4c1.4,9.5,2.9,19.2,6.1,28.2c7.1,20.4,21.9,28.8,43.3,25.8c29.1-4.1,55.1-15.9,78-33.8
	c54.2-42.4,79.6-98.5,75.7-167.2c-5.7-98.9-74.7-181.5-170.6-205.2C181.3,4.4,55.8,85.1,32.2,211.2c-17,90.6,23,182.3,101.1,231.6
	c2.5,1.6,5.2,3.1,7.6,4.8c6.7,5,8.1,13,3.4,19.9c-4.1,6.2-12.1,7.8-19,3.6C58.3,429.9,16.1,371,3.4,293.1
	c-19.2-117.9,45-231,155.8-275.1c95.5-38,208.3-16.3,282.5,67.9c33.5,37.9,53.9,81.9,59.1,132.4c6.8,66.1-7,126.7-51.2,178.2
	c-30.9,36-69.4,59.8-115.7,70.7c-13.1,3.1-26.4,3.6-39.6,0.1c-22-5.9-36.7-20.3-43.8-41.5c-4-12-5.7-24.9-8-37.5
	c-1.1-6.4-2.3-8.4-8.6-9.8c-35.8-8-61.1-38.8-61.9-75.6c-0.2-8.8-0.1-17.7,0-26.5c0-4.7-1.6-7.2-6.7-7.1c-4.3,0.1-6.2-2.2-6.2-6.6
	c0.1-14.8,0.1-29.7,0-44.5c0-4.7,2-6.7,6.6-6.7c7,0.1,14,0,21,0c6.4,0,7.3-0.8,7.3-7.1C194.1,193.6,194,182.6,194.1,171.6
	C194,171.6,194.1,171.6,194.1,171.6z"/>
</svg>
